<svg width="30" height="28" viewBox="0 0 30 28" fill="none" xmlns="http://www.w3.org/2000/svg">
<g clip-path="url(#clip0_6:98)">
<path fill-rule="evenodd" clip-rule="evenodd" d="M28.3333 19.25H1.66667C0.75 19.25 0 20.0375 0 21C0 21.9625 0.75 22.75 1.66667 22.75H28.3333C29.25 22.75 30 21.9625 30 21C30 20.0375 29.25 19.25 28.3333 19.25ZM28.3333 10.5H1.66667C0.75 10.5 0 11.2875 0 12.25V14C0 14.9625 0.75 15.75 1.66667 15.75H28.3333C29.25 15.75 30 14.9625 30 14V12.25C30 11.2875 29.25 10.5 28.3333 10.5ZM28.3333 0H1.66667C0.75 0 0 0.7875 0 1.75V5.25C0 6.2125 0.75 7 1.66667 7H28.3333C29.25 7 30 6.2125 30 5.25V1.75C30 0.7875 29.25 0 28.3333 0ZM29.1667 26.25H0.833333C0.366667 26.25 0 26.635 0 27.125C0 27.615 0.366667 28 0.833333 28H29.1667C29.6333 28 30 27.615 30 27.125C30 26.635 29.6333 26.25 29.1667 26.25Z" fill="#E2E8E4"/>
</g>
<defs>
<clipPath id="clip0_6:98">
<rect width="30" height="28" fill="white"/>
</clipPath>
</defs>
</svg>
